<?xml version="1.0" encoding="utf-8"?>
<svg version="1.1" xmlns="http://www.w3.org/2000/svg" x="0px" y="0px" viewBox="0 0 1000 1000" >
    <g><path d="M599.4,17C568,10,536.6,6.5,501.7,6.5c-34.9,0-66.3,3.5-97.7,10.5C177.4,62.3,10,261.1,10,498.3c0,101.1,31.4,191.8,83.7,272c14,17.4,27.9,38.4,41.9,55.8c69.8,76.7,163.9,132.5,268.5,156.9c31.4,7,62.8,10.5,97.7,10.5c34.9,0,66.3-3.5,97.7-10.5c104.6-20.9,198.8-76.7,268.5-156.9c3.5-3.5,7-7,10.5-14C948.1,728.4,990,616.8,990,498.3C990,261.1,822.6,62.3,599.4,17z M864.4,285.5c34.9,59.3,55.8,125.6,59.3,198.8H784.2c0-69.8-10.5-136-27.9-198.8C756.3,282,864.4,282,864.4,285.5z M812.1,215.8h-80.2c-14-34.9-31.4-69.8-52.3-97.7C728.4,142.5,773.8,173.9,812.1,215.8z M536.6,79.8c3.5,0,7,0,14,0c41.9,31.4,80.2,76.7,108.1,136H536.6V79.8z M536.6,285.5h150c20.9,59.3,31.4,129,31.4,198.8H536.6C536.6,480.8,536.6,285.5,536.6,285.5z M714.5,554.1c-7,73.2-20.9,139.5-45.3,198.8H536.6V554.1C536.6,550.6,714.5,550.6,714.5,554.1z M285.5,554.1h177.9v198.8H330.9C309.9,693.6,292.5,627.3,285.5,554.1z M285.5,484.3c0-69.8,14-139.5,31.4-198.8h150v198.8H285.5z M452.9,79.8c3.5,0,7,0,14,0v136H344.8C372.7,160,407.6,111.1,452.9,79.8z M320.4,118.1c-20.9,27.9-38.4,62.8-52.3,97.7h-80.2C226.2,173.9,271.6,142.5,320.4,118.1z M139,285.5h108.1c-17.4,62.8-27.9,129-27.9,195.3H79.8C83.2,411.1,104.2,344.8,139,285.5z M83.2,554.1h132.5c3.5,69.8,20.9,139.5,41.9,198.8h-90.7C121.6,697,93.7,630.8,83.2,554.1z M233.2,819.1H289c10.5,20.9,20.9,38.4,31.4,55.8C289,864.4,261.1,847,233.2,819.1z M452.9,916.8c-31.4-24.4-59.3-55.8-83.7-94.2h97.7v94.2C459.9,916.8,456.4,916.8,452.9,916.8z M547.1,916.8c-3.5,0-7,0-14,0v-94.2h97.7C606.4,861,578.5,888.9,547.1,916.8z M679.6,878.4c10.5-17.4,20.9-34.9,31.4-55.8h55.8C738.9,847,711,864.4,679.6,878.4z M833.1,749.4h-90.7c20.9-59.3,38.4-129,41.8-198.8h132.5C906.3,630.8,878.4,697,833.1,749.4z"/></g>
</svg>